<?xml version="1.0" encoding="UTF-8" standalone="no"?><!DOCTYPE svg PUBLIC "-//W3C//DTD SVG 1.1//EN"
        "http://www.w3.org/Graphics/SVG/1.1/DTD/svg11.dtd">
<svg width="100%" height="100%" viewBox="0 0 221 220" version="1.1" xmlns="http://www.w3.org/2000/svg"
     xmlns:xlink="http://www.w3.org/1999/xlink" xml:space="preserve" xmlns:serif="http://www.serif.com/"
     style="fill-rule:evenodd;clip-rule:evenodd;stroke-linejoin:round;stroke-miterlimit:2;"><rect id="Artboard2" x="0" y="0" width="220.804" height="219.573" style="fill:none;"/>
    <g>
        <path d="M209.764,45.961c-0,-19.108 -14.95,-34.622 -33.364,-34.622l-131.698,-0c-18.414,-0 -33.363,15.514 -33.363,34.622l-0,128.973c-0,19.108 14.949,34.622 33.363,34.622l131.698,0c18.414,0 33.364,-15.514 33.364,-34.622l-0,-128.973Zm-141.663,79.232c-0,12.112 -2.607,17.236 -8.624,17.236c-4.011,-0 -6.016,-1.863 -7.219,-5.745c-1.204,-3.882 -1.304,-9.783 -1.304,-17.546l-28.277,-0c0,39.905 11.03,50.309 38.505,50.309c30.283,-0 35.196,-19.254 35.196,-47.514l-0,-67.235l-28.277,0l-0,70.495Zm99.712,-2.795c-2.214,13.354 -7.316,19.099 -15.884,19.099c-9.915,0 -16.75,-8.85 -16.75,-31.365c-0,-22.515 7.027,-31.366 18.098,-31.366c10.493,-0 13.766,11.49 14.536,19.409l30.612,0c-3.562,-43.943 -28.783,-47.359 -45.148,-47.359c-16.462,0 -46.978,1.864 -46.978,59.316c0,57.452 30.516,59.315 46.978,59.315c16.557,-0 26.954,-4.503 33.596,-12.577c6.739,-8.075 9.819,-19.876 11.552,-34.472l-30.612,0Z"/></g>
</svg>